<svg xmlns="http://www.w3.org/2000/svg" width="360" height="800" viewBox="0 0 360 800">
  <rect width="360" height="800" fill="#f6f7f9"></rect>
  <rect width="360" height="24" fill="#e9ecf1"></rect>
  <rect y="24" width="360" height="56" fill="#ffffff" stroke="#d7dbe3"></rect>
  <text x="16" y="58" font-family="Arial" font-size="14" fill="#111827">← Rendición 2026-01</text>

  <rect x="16" y="96" width="328" height="84" rx="10" fill="#ffffff" stroke="#d7dbe3"></rect>
  <text x="28" y="128" font-family="Arial" font-size="14" fill="#111827">Estado: Borrador</text>
  <text x="28" y="152" font-family="Arial" font-size="11" fill="#6b7280">Observaciones: (si aplica)</text>

  <text x="16" y="214" font-family="Arial" font-size="12" fill="#6b7280">Comprobantes</text>

  <g>
    <rect x="16" y="228" width="328" height="60" rx="10" fill="#ffffff" stroke="#d7dbe3"></rect>
    <text x="28" y="260" font-family="Arial" font-size="13" fill="#111827">comprobante_01.pdf</text>
    <text x="28" y="278" font-family="Arial" font-size="11" fill="#6b7280">Estado: Cargado</text>
    <text x="324" y="264" font-family="Arial" font-size="18" fill="#9ca3af">›</text>
  </g>

  <g>
    <rect x="16" y="298" width="328" height="60" rx="10" fill="#ffffff" stroke="#d7dbe3"></rect>
    <text x="28" y="330" font-family="Arial" font-size="13" fill="#111827">foto_ticket.jpg</text>
    <text x="28" y="348" font-family="Arial" font-size="11" fill="#6b7280">Estado: Validado</text>
    <text x="324" y="334" font-family="Arial" font-size="18" fill="#9ca3af">›</text>
  </g>

  <rect x="16" y="688" width="328" height="52" rx="10" fill="#ffffff" stroke="#d7dbe3"></rect>
  <text x="28" y="720" font-family="Arial" font-size="14" fill="#111827">Adjuntar comprobante</text>
  <text x="324" y="724" font-family="Arial" font-size="18" fill="#9ca3af">›</text>

  <rect x="16" y="624" width="328" height="52" rx="10" fill="#111827"></rect>
  <text x="120" y="658" font-family="Arial" font-size="14" fill="#ffffff">Presentar rendición</text>
</svg>
