<svg xmlns="http://www.w3.org/2000/svg" width="360" height="800" viewBox="0 0 360 800">
  <rect width="360" height="800" fill="#f6f7f9"></rect>
  <rect width="360" height="24" fill="#e9ecf1"></rect>
  <rect y="24" width="360" height="56" fill="#ffffff" stroke="#d7dbe3"></rect>
  <text x="16" y="58" font-family="Arial" font-size="14" fill="#111827">← Perfil del espacio</text>
  <text x="16" y="112" font-family="Arial" font-size="12" fill="#6b7280">Centro X</text>

  <rect x="16" y="128" width="328" height="92" rx="10" fill="#ffffff" stroke="#d7dbe3"></rect>
  <text x="28" y="156" font-family="Arial" font-size="14" fill="#111827">Estado</text>
  <rect x="28" y="168" width="86" height="22" rx="11" fill="#eef2ff" stroke="#c7d2fe"></rect>
  <text x="40" y="184" font-family="Arial" font-size="11" fill="#3730a3">Activo</text>

  <rect x="16" y="236" width="328" height="160" rx="10" fill="#ffffff" stroke="#d7dbe3"></rect>
  <text x="28" y="264" font-family="Arial" font-size="12" fill="#6b7280">Dirección</text>
  <text x="28" y="284" font-family="Arial" font-size="13" fill="#111827">Calle 123, Localidad</text>
  <text x="28" y="318" font-family="Arial" font-size="12" fill="#6b7280">Jurisdicción</text>
  <text x="28" y="338" font-family="Arial" font-size="13" fill="#111827">Almirante Brown · Buenos Aires</text>
  <text x="28" y="372" font-family="Arial" font-size="12" fill="#6b7280">Contacto</text>
  <text x="28" y="392" font-family="Arial" font-size="13" fill="#111827">WhatsApp: +54 9 11 0000-0000</text>

  <rect x="16" y="420" width="328" height="52" rx="10" fill="#ffffff" stroke="#d7dbe3"></rect>
  <text x="28" y="452" font-family="Arial" font-size="14" fill="#111827">Ver documentos</text>
  <text x="324" y="456" font-family="Arial" font-size="18" fill="#9ca3af">›</text>

  <rect x="16" y="484" width="328" height="52" rx="10" fill="#ffffff" stroke="#d7dbe3"></rect>
  <text x="28" y="516" font-family="Arial" font-size="14" fill="#111827">Ver mensajes</text>
  <text x="324" y="520" font-family="Arial" font-size="18" fill="#9ca3af">›</text>
</svg>
